<?xml version="1.0" encoding="UTF-8" standalone="no"?>
<!DOCTYPE svg PUBLIC "-//W3C//DTD SVG 1.1//EN" "http://www.w3.org/Graphics/SVG/1.1/DTD/svg11.dtd">
<svg xmlns="http://www.w3.org/2000/svg" version="1.1" xmlns:xl="http://www.w3.org/1999/xlink" xmlns:dc="http://purl.org/dc/elements/1.1/" viewBox="116 -81 234 274" width="234" height="274">
  <defs/>
  <metadata> Produced by OmniGraffle 7.11 
    <dc:date>2019-08-22 19:23:22 +0000</dc:date>
  </metadata>
  <g id="Canvas_1" stroke-dasharray="none" stroke="none" fill-opacity="1" fill="none" stroke-opacity="1">
    <title>Canvas 1</title>
    <g id="Canvas_1: Layer 1">
      <title>Layer 1</title>
      <g id="Group_44">
        <g id="Graphic_28">
          <rect x="116" y="-40.991" width="33.174" height="33.174" fill="#6dc067"/>
        </g>
        <g id="Graphic_27">
          <rect x="116" y="-.981" width="33.174" height="33.174" fill="#39bb9d"/>
        </g>
        <g id="Graphic_26">
          <rect x="116" y="39.029" width="33.174" height="33.165" fill="#00b7ce"/>
        </g>
        <g id="Graphic_25">
          <rect x="116" y="79.029" width="33.174" height="33.174" fill="#00a1e4"/>
        </g>
        <g id="Graphic_24">
          <rect x="116" y="119.039" width="33.174" height="33.174" fill="#007dc5"/>
        </g>
        <g id="Graphic_23">
          <rect x="116" y="159.029" width="33.174" height="33.193" fill="#005baa"/>
        </g>
        <g id="Graphic_22">
          <rect x="156.01" y="-81" width="33.164" height="33.174" fill="#8bc751"/>
        </g>
        <g id="Graphic_21">
          <rect x="196" y="-81" width="33.164" height="33.174" fill="#8bc751"/>
        </g>
        <g id="Graphic_20">
          <rect x="236" y="-81" width="33.174" height="33.174" fill="#8bc751"/>
        </g>
        <g id="Graphic_19">
          <rect x="276.01" y="-81" width="33.174" height="33.174" fill="#8bc751"/>
        </g>
        <g id="Graphic_18">
          <rect x="196" y="-.981" width="33.164" height="33.174" fill="#39bb9d"/>
        </g>
        <g id="Graphic_17">
          <rect x="236" y="-.981" width="33.174" height="33.174" fill="#39bb9d"/>
        </g>
        <g id="Graphic_16">
          <rect x="276.01" y="-.981" width="33.174" height="33.174" fill="#39bb9d"/>
        </g>
        <g id="Graphic_15">
          <rect x="276.01" y="39.029" width="33.174" height="33.165" fill="#00b7ce"/>
        </g>
        <g id="Graphic_14">
          <rect x="196" y="79.029" width="33.164" height="33.174" fill="#00a1e4"/>
        </g>
        <g id="Graphic_13">
          <rect x="236" y="79.029" width="33.174" height="33.174" fill="#00a1e4"/>
        </g>
        <g id="Graphic_12">
          <rect x="196" y="119.039" width="33.164" height="33.174" fill="#007dc5"/>
        </g>
        <g id="Graphic_11">
          <rect x="236" y="119.039" width="33.174" height="33.174" fill="#007dc5"/>
        </g>
        <g id="Graphic_10">
          <rect x="276.01" y="119.039" width="33.174" height="33.174" fill="#007dc5"/>
        </g>
        <g id="Graphic_9">
          <rect x="156.01" y="159.029" width="33.164" height="33.193" fill="#005baa"/>
        </g>
        <g id="Graphic_8">
          <rect x="236" y="159.029" width="33.174" height="33.193" fill="#005baa"/>
        </g>
        <g id="Graphic_7">
          <rect x="276.01" y="159.029" width="33.174" height="33.193" fill="#005baa"/>
        </g>
        <g id="Graphic_6">
          <rect x="316.019" y="-40.991" width="33.174" height="33.174" fill="#6dc067"/>
        </g>
        <g id="Graphic_5">
          <rect x="316.019" y="-.981" width="33.174" height="33.174" fill="#39bb9d"/>
        </g>
        <g id="Graphic_4">
          <rect x="316.019" y="159.029" width="33.174" height="33.193" fill="#005baa"/>
        </g>
      </g>
    </g>
  </g>
</svg>
